<?xml version="1.0" encoding="utf-8"?>
<!-- Generator: Adobe Illustrator 18.0.0, SVG Export Plug-In . SVG Version: 6.00 Build 0)  -->
<!DOCTYPE svg PUBLIC "-//W3C//DTD SVG 1.1//EN" "http://www.w3.org/Graphics/SVG/1.1/DTD/svg11.dtd">
<svg version="1.1" id="chart" xmlns="http://www.w3.org/2000/svg" xmlns:xlink="http://www.w3.org/1999/xlink" x="0px" y="0px"
	 viewBox="0 -1.5 600 671.5" enable-background="new 0 -1.5 600 671.5" xml:space="preserve">
<defs  xmlns="http://www.w3.org/1999/xhtml">
	<style  type="text/css">
		<![CDATA[[object Object]]]>
	</style>
</defs>
<rect id="ground" fill="none" width="600" height="670"/>
<rect id="plotArea" x="144.7" y="27.9" fill="none" width="445.3" height="592.1"/>
<g id="rightAxis" transform="translate(10,0)" display="none">
	<g transform="translate(0,562.25)" display="inline">
		<line fill="none" stroke="#E6E6E6" x1="0" y1="0" x2="580" y2="0"/>
		<text transform="matrix(1 0 0 1 556.6416 -4.52)" fill="#666666" font-family="'Helvetica'" font-size="14">270</text>
	</g>
	<g transform="translate(0,152.93333435058594)" display="inline">
		<line fill="none" stroke="#666666" x1="0" y1="0" x2="580" y2="0"/>
		<text transform="matrix(1 0 0 1 572.2139 -4.52)" fill="#666666" font-family="'Helvetica'" font-size="14">0</text>
	</g>
	<g transform="translate(0,289.3722229003906)" display="inline">
		<line fill="none" stroke="#E6E6E6" x1="0" y1="0" x2="580" y2="0"/>
		<text transform="matrix(1 0 0 1 564.4277 -4.52)" fill="#666666" font-family="'Helvetica'" font-size="14">90</text>
	</g>
	<g transform="translate(0,425.81111145019537)" display="inline">
		<line fill="none" stroke="#E6E6E6" x1="0" y1="0" x2="580" y2="0"/>
		<text transform="matrix(1 0 0 1 556.6416 -4.52)" fill="#666666" font-family="'Helvetica'" font-size="14">180</text>
	</g>
	<path display="inline" fill="none" d="M580,152.9H0v409.3h580"/>
</g>
<defs  xmlns="http://www.w3.org/1999/xhtml">
	<style  type="text/css"></style>
</defs>
<defs  xmlns="http://www.w3.org/1999/xhtml">
	<style  type="text/css"></style>
</defs>
<g id="xAxis" transform="translate(152.93333435058594,0)">
	<g transform="translate(0,411.4750003814697)">
		<line fill="none" stroke="#E6E6E6" x1="0" y1="0" x2="-6" y2="0"/>
		<text transform="matrix(1 0 0 1 -61.1445 4.48)" fill="#666666" font-family="'Helvetica'" font-size="14">Portugal</text>
	</g>
	<g transform="translate(0,573.6611111958821)">
		<line fill="none" stroke="#E6E6E6" x1="0" y1="0" x2="-6" y2="0"/>
		<text transform="matrix(1 0 0 1 -43.2344 4.48)" fill="#666666" font-family="'Helvetica'" font-size="14">Malta</text>
	</g>
	<g transform="translate(0,63.93333435058594)">
		<line fill="none" stroke="#E6E6E6" x1="0" y1="0" x2="-6" y2="0"/>
		<text transform="matrix(1 0 0 1 -48.6826 4.48)" fill="#666666" font-family="'Helvetica'" font-size="14">EU-27</text>
	</g>
	<g transform="translate(0,110.27222315470377)">
		<line fill="none" stroke="#E6E6E6" x1="0" y1="0" x2="-6" y2="0"/>
		<text transform="matrix(1 0 0 1 -55.7031 4.48)" fill="#666666" font-family="'Helvetica'" font-size="14">Polònia</text>
	</g>
	<g transform="translate(0,87.10277875264485)">
		<line fill="none" stroke="#E6E6E6" x1="0" y1="0" x2="-6" y2="0"/>
		<text transform="matrix(1 0 0 1 -55.6963 4.48)" fill="#666666" font-family="'Helvetica'" font-size="14">Estònia</text>
	</g>
	<g transform="translate(0,156.6111119588216)">
		<line fill="none" stroke="#E6E6E6" x1="0" y1="0" x2="-6" y2="0"/>
		<text transform="matrix(1 0 0 1 -51.8066 4.48)" fill="#666666" font-family="'Helvetica'" font-size="14">Irlanda</text>
	</g>
	<g transform="translate(0,179.78055636088052)">
		<line fill="none" stroke="#E6E6E6" x1="0" y1="0" x2="-6" y2="0"/>
		<text transform="matrix(1 0 0 1 -51.8066 4.48)" fill="#666666" font-family="'Helvetica'" font-size="14">Suècia</text>
	</g>
	<g transform="translate(0,202.95000076293945)">
		<line fill="none" stroke="#E6E6E6" x1="0" y1="0" x2="-6" y2="0"/>
		<text transform="matrix(1 0 0 1 -52.5723 4.48)" fill="#666666" font-family="'Helvetica'" font-size="14">Àustria</text>
	</g>
	<g transform="translate(0,226.11944516499835)">
		<line fill="none" stroke="#E6E6E6" x1="0" y1="0" x2="-6" y2="0"/>
		<text transform="matrix(1 0 0 1 -65.8135 4.48)" fill="#666666" font-family="'Helvetica'" font-size="14">Finlàndia</text>
	</g>
	<g transform="translate(0,249.28888956705728)">
		<line fill="none" stroke="#E6E6E6" x1="0" y1="0" x2="-6" y2="0"/>
		<text transform="matrix(1 0 0 1 -38.5723 4.48)" fill="#666666" font-family="'Helvetica'" font-size="14">Itàlia</text>
	</g>
	<g transform="translate(0,295.6277783711751)">
		<line fill="none" stroke="#E6E6E6" x1="0" y1="0" x2="-6" y2="0"/>
		<text transform="matrix(1 0 0 1 -79.041 4.48)" fill="#666666" font-family="'Helvetica'" font-size="14">Luxemburg</text>
	</g>
	<g transform="translate(0,318.797222773234)">
		<line fill="none" stroke="#E6E6E6" x1="0" y1="0" x2="-6" y2="0"/>
		<text transform="matrix(1 0 0 1 -71.2549 4.48)" fill="#666666" font-family="'Helvetica'" font-size="14">Alemanya</text>
	</g>
	<g transform="translate(0,341.96666717529297)">
		<line fill="none" stroke="#E6E6E6" x1="0" y1="0" x2="-6" y2="0"/>
		<text transform="matrix(1 0 0 1 -76.6895 4.48)" fill="#666666" font-family="'Helvetica'" font-size="14">Dinamarca</text>
	</g>
	<g transform="translate(0,388.30555597941077)">
		<line fill="none" stroke="#E6E6E6" x1="0" y1="0" x2="-6" y2="0"/>
		<text transform="matrix(1 0 0 1 -63.4824 4.48)" fill="#666666" font-family="'Helvetica'" font-size="14">Espanya</text>
	</g>
	<g transform="translate(0,434.6444447835286)">
		<line fill="none" stroke="#E6E6E6" x1="0" y1="0" x2="-6" y2="0"/>
		<text transform="matrix(1 0 0 1 -58.041 4.48)" fill="#666666" font-family="'Helvetica'" font-size="14">Lituània</text>
	</g>
	<g transform="translate(0,457.8138891855875)">
		<line fill="none" stroke="#E6E6E6" x1="0" y1="0" x2="-6" y2="0"/>
		<text transform="matrix(1 0 0 1 -77.4893 4.48)" fill="#666666" font-family="'Helvetica'" font-size="14">Eslovàquia</text>
	</g>
	<g transform="translate(0,480.9833335876465)">
		<line fill="none" stroke="#E6E6E6" x1="0" y1="0" x2="-6" y2="0"/>
		<text transform="matrix(1 0 0 1 -54.9307 4.48)" fill="#666666" font-family="'Helvetica'" font-size="14">Letònia</text>
	</g>
	<g transform="translate(0,504.1527779897054)">
		<line fill="none" stroke="#E6E6E6" x1="0" y1="0" x2="-6" y2="0"/>
		<text transform="matrix(1 0 0 1 -60.3652 4.48)" fill="#666666" font-family="'Helvetica'" font-size="14">Bulgària</text>
	</g>
	<g transform="translate(0,527.3222223917643)">
		<line fill="none" stroke="#E6E6E6" x1="0" y1="0" x2="-6" y2="0"/>
		<text transform="matrix(1 0 0 1 -113.0293 4.48)" fill="#666666" font-family="'Helvetica'" font-size="14">República Txeca</text>
	</g>
	<g transform="translate(0,550.4916667938232)">
		<line fill="none" stroke="#E6E6E6" x1="0" y1="0" x2="-6" y2="0"/>
		<text transform="matrix(1 0 0 1 -50.2344 4.48)" fill="#666666" font-family="'Helvetica'" font-size="14">Grècia</text>
	</g>
	<g transform="translate(0,596.830555597941)">
		<line fill="none" stroke="#E6E6E6" x1="0" y1="0" x2="-6" y2="0"/>
		<text transform="matrix(1 0 0 1 -65.0273 4.48)" fill="#666666" font-family="'Helvetica'" font-size="14">Romania</text>
	</g>
	<g transform="translate(0,620)">
		<line fill="none" stroke="#E6E6E6" x1="0" y1="0" x2="-6" y2="0"/>
		<text transform="matrix(1 0 0 1 -69.7031 4.48)" fill="#666666" font-family="'Helvetica'" font-size="14">Eslovènia</text>
	</g>
	<g transform="translate(0,133.4416675567627)">
		<line fill="none" stroke="#E6E6E6" x1="0" y1="0" x2="-6" y2="0"/>
		<text transform="matrix(1 0 0 1 -79.041 4.48)" fill="#666666" font-family="'Helvetica'" font-size="14">Regne Unit</text>
	</g>
	<g transform="translate(0,272.4583339691162)">
		<line fill="none" stroke="#E6E6E6" x1="0" y1="0" x2="-6" y2="0"/>
		<text transform="matrix(1 0 0 1 -58.0273 4.48)" fill="#666666" font-family="'Helvetica'" font-size="14">Hongria</text>
	</g>
	<g transform="translate(0,365.13611157735187)">
		<line fill="none" stroke="#E6E6E6" x1="0" y1="0" x2="-6" y2="0"/>
		<text transform="matrix(1 0 0 1 -52.5723 4.48)" fill="#666666" font-family="'Helvetica'" font-size="14">França</text>
	</g>
	<path fill="none" d="M-6,63.9h6V620h-6"/>
</g>
<g id="seriesContainer">
	<g transform="translate(0,0)">
		<text transform="matrix(1 0 0 1 152.9333 48.4333)" fill="#258880" font-family="'Helvetica'" font-size="14">Total (kg per càpita)</text>
		<rect x="152.9" y="53.9" fill="#258880" width="271.4" height="20"/>
		<rect x="152.9" y="77.1" fill="#258880" width="401.7" height="20"/>
		<rect x="152.9" y="100.3" fill="#258880" width="374.4" height="20"/>
		<rect x="152.9" y="123.4" fill="#258880" width="357.8" height="20"/>
		<rect x="152.9" y="146.6" fill="#258880" width="327.5" height="20"/>
		<rect x="152.9" y="169.8" fill="#258880" width="321.4" height="20"/>
		<rect x="152.9" y="193" fill="#258880" width="316.8" height="20"/>
		<rect x="152.9" y="216.1" fill="#258880" width="286.5" height="20"/>
		<rect x="152.9" y="239.3" fill="#258880" width="271.4" height="20"/>
		<rect x="152.9" y="262.5" fill="#258880" width="265.3" height="20"/>
		<rect x="152.9" y="285.6" fill="#258880" width="265.3" height="20"/>
		<rect x="152.9" y="308.8" fill="#258880" width="225.9" height="20"/>
		<rect x="152.9" y="332" fill="#258880" width="221.3" height="20"/>
		<rect x="152.9" y="355.1" fill="#258880" width="206.2" height="20"/>
		<rect x="152.9" y="378.3" fill="#258880" width="204.7" height="20"/>
		<rect x="152.9" y="401.5" fill="#258880" width="200.1" height="20"/>
		<rect x="152.9" y="424.6" fill="#258880" width="180.4" height="20"/>
		<rect x="152.9" y="447.8" fill="#258880" width="168.3" height="20"/>
		<rect x="152.9" y="471" fill="#258880" width="166.8" height="20"/>
		<rect x="152.9" y="494.2" fill="#258880" width="159.2" height="20"/>
		<rect x="152.9" y="517.3" fill="#258880" width="122.8" height="20"/>
		<rect x="152.9" y="540.5" fill="#258880" width="121.3" height="20"/>
		<rect x="152.9" y="563.7" fill="#258880" width="115.2" height="20"/>
		<rect x="152.9" y="586.8" fill="#258880" width="115.2" height="20"/>
		<text transform="matrix(1 0 0 1 428.2951 68.5083)" fill="#258880" font-family="'Helvetica'" font-size="14">179</text>
		<text transform="matrix(1 0 0 1 558.67 92.0903)" fill="#258880" font-family="'Helvetica'" font-size="14">265</text>
		<text transform="matrix(1 0 0 1 531.3823 114.8181)" fill="#258880" font-family="'Helvetica'" font-size="14">247</text>
		<text transform="matrix(1 0 0 1 514.7064 138.425)" fill="#258880" font-family="'Helvetica'" font-size="14">236</text>
		<text transform="matrix(1 0 0 1 484.3867 161.5945)" fill="#258880" font-family="'Helvetica'" font-size="14">216</text>
		<text transform="matrix(1 0 0 1 478.3227 184.2722)" fill="#258880" font-family="'Helvetica'" font-size="14">212</text>
		<text transform="matrix(1 0 0 1 473.7747 207.525)" fill="#258880" font-family="'Helvetica'" font-size="14">209</text>
		<text transform="matrix(1 0 0 1 443.455 230.6986)" fill="#258880" font-family="'Helvetica'" font-size="14">189</text>
		<text transform="matrix(1 0 0 1 428.2951 253.8639)" fill="#258880" font-family="'Helvetica'" font-size="14">179</text>
		<text transform="matrix(1 0 0 1 422.2312 277.2417)" fill="#258880" font-family="'Helvetica'" font-size="14">175</text>
		<text transform="matrix(1 0 0 1 422.2312 300.4111)" fill="#258880" font-family="'Helvetica'" font-size="14">175</text>
		<text transform="matrix(1 0 0 1 382.8155 323.3722)" fill="#258880" font-family="'Helvetica'" font-size="14">149</text>
		<text transform="matrix(1 0 0 1 378.2675 346.95)" fill="#258880" font-family="'Helvetica'" font-size="14">146</text>
		<text transform="matrix(1 0 0 1 363.1077 370.1194)" fill="#258880" font-family="'Helvetica'" font-size="14">136</text>
		<text transform="matrix(1 0 0 1 361.5917 393.0889)" fill="#258880" font-family="'Helvetica'" font-size="14">135</text>
		<text transform="matrix(1 0 0 1 357.0437 415.9667)" fill="#258880" font-family="'Helvetica'" font-size="14">132</text>
		<text transform="matrix(1 0 0 1 337.3359 439.2195)" fill="#258880" font-family="'Helvetica'" font-size="14">119</text>
		<text transform="matrix(1 0 0 1 325.208 462.3097)" fill="#258880" font-family="'Helvetica'" font-size="14">111</text>
		<text transform="matrix(1 0 0 1 323.692 485.5583)" fill="#258880" font-family="'Helvetica'" font-size="14">110</text>
		<text transform="matrix(1 0 0 1 316.112 508.9403)" fill="#258880" font-family="'Helvetica'" font-size="14">105</text>
		<text transform="matrix(1 0 0 1 279.7283 531.8889)" fill="#258880" font-family="'Helvetica'" font-size="14">81</text>
		<text transform="matrix(1 0 0 1 278.2123 555.0667)" fill="#258880" font-family="'Helvetica'" font-size="14">80</text>
		<text transform="matrix(1 0 0 1 272.1484 578.6445)" fill="#258880" font-family="'Helvetica'" font-size="14">76</text>
		<text transform="matrix(1 0 0 1 272.1484 601.8139)" fill="#258880" font-family="'Helvetica'" font-size="14">76</text>
		<text transform="matrix(1 0 0 1 266.0844 624.4833)" fill="#258880" font-family="'Helvetica'" font-size="14">72</text>
		<rect x="152.9" y="610" fill="#258880" width="109.2" height="20"/>
	</g>
</g>
<g id="legendItemContainer">
</g>
<g id="metaInfo" transform="translate(0,666)">
	<text transform="matrix(1 0 0 1 519.2217 0)" fill="#999999" font-family="'Helvetica'" font-size="10">Dades: Eurostat</text>
</g>
<g>
	<path d="M125.4,7.9v2.8H118v4.5h5.8v2.7H118v4.6h7.5v2.8h-11.1V7.9H125.4z"/>
	<path d="M131,7.4v17.9h-3.3V7.4H131z"/>
	<path d="M139.5,25.3V12.9h2c0.4,0,0.7,0.2,0.8,0.6l0.2,0.8c0.2-0.2,0.4-0.4,0.7-0.6c0.2-0.2,0.5-0.4,0.7-0.5
		c0.3-0.1,0.5-0.2,0.9-0.3c0.3-0.1,0.6-0.1,1-0.1c0.8,0,1.4,0.2,1.9,0.6c0.5,0.4,0.9,0.9,1.1,1.6c0.2-0.4,0.4-0.7,0.7-1
		c0.3-0.3,0.6-0.5,1-0.7c0.3-0.2,0.7-0.3,1.1-0.4s0.8-0.1,1.2-0.1c0.7,0,1.3,0.1,1.8,0.3c0.5,0.2,1,0.5,1.3,0.9s0.6,0.9,0.8,1.5
		s0.3,1.2,0.3,2v7.9h-3.3v-7.9c0-1.4-0.6-2.2-1.9-2.2c-0.3,0-0.5,0-0.8,0.1c-0.2,0.1-0.4,0.2-0.6,0.4c-0.2,0.2-0.3,0.4-0.4,0.7
		s-0.1,0.6-0.1,0.9v7.9h-3.3v-7.9c0-0.8-0.2-1.3-0.5-1.7c-0.3-0.3-0.8-0.5-1.4-0.5c-0.4,0-0.7,0.1-1.1,0.3c-0.3,0.2-0.7,0.4-1,0.8v9
		H139.5z"/>
	<path d="M165.1,12.7c0.8,0,1.5,0.1,2.2,0.4s1.2,0.6,1.7,1.1c0.5,0.5,0.9,1.1,1.1,1.8c0.3,0.7,0.4,1.5,0.4,2.4c0,0.2,0,0.5,0,0.6
		c0,0.2-0.1,0.3-0.1,0.4c-0.1,0.1-0.1,0.2-0.2,0.2s-0.2,0.1-0.4,0.1h-7.4c0.1,1.2,0.4,2,1,2.5c0.6,0.5,1.3,0.8,2.2,0.8
		c0.5,0,0.9-0.1,1.2-0.2c0.3-0.1,0.6-0.2,0.9-0.4c0.3-0.1,0.5-0.3,0.7-0.4s0.4-0.2,0.6-0.2c0.3,0,0.5,0.1,0.6,0.3l1,1.2
		c-0.4,0.4-0.7,0.7-1.2,1c-0.4,0.3-0.9,0.5-1.3,0.6c-0.5,0.2-0.9,0.3-1.4,0.3s-0.9,0.1-1.3,0.1c-0.9,0-1.7-0.1-2.4-0.4
		c-0.7-0.3-1.4-0.7-2-1.3s-1-1.2-1.3-2.1c-0.3-0.8-0.5-1.8-0.5-2.9c0-0.8,0.1-1.6,0.4-2.4c0.3-0.7,0.7-1.4,1.2-1.9
		c0.5-0.6,1.2-1,1.9-1.3C163.3,12.9,164.1,12.7,165.1,12.7z M165.1,15.1c-0.8,0-1.4,0.2-1.9,0.7c-0.4,0.5-0.7,1.1-0.9,1.9h5.2
		c0-0.3,0-0.7-0.1-1s-0.2-0.6-0.4-0.8c-0.2-0.2-0.5-0.4-0.8-0.6S165.6,15.1,165.1,15.1z"/>
	<path d="M172.6,25.3V12.9h2c0.4,0,0.7,0.2,0.8,0.6l0.2,0.9c0.2-0.2,0.5-0.5,0.8-0.7c0.3-0.2,0.6-0.4,0.9-0.5c0.3-0.1,0.6-0.3,1-0.3
		s0.7-0.1,1.1-0.1c0.7,0,1.3,0.1,1.8,0.3c0.5,0.2,1,0.6,1.3,1c0.4,0.4,0.6,0.9,0.8,1.5c0.2,0.6,0.3,1.2,0.3,1.9v7.9h-3.3v-7.9
		c0-0.7-0.2-1.2-0.5-1.6c-0.3-0.4-0.8-0.6-1.4-0.6c-0.5,0-0.9,0.1-1.3,0.3s-0.8,0.5-1.2,0.8v8.9H172.6z"/>
	<path d="M189.6,12.9v12.6c0,0.6-0.1,1.1-0.2,1.6c-0.1,0.5-0.4,0.9-0.7,1.3c-0.3,0.4-0.7,0.7-1.3,0.9c-0.5,0.2-1.2,0.3-1.9,0.3
		c-0.3,0-0.6,0-0.8-0.1s-0.5-0.1-0.8-0.2l0.1-1.8c0-0.2,0.1-0.3,0.2-0.3c0.1-0.1,0.3-0.1,0.6-0.1s0.5,0,0.7-0.1
		c0.2-0.1,0.3-0.1,0.5-0.3c0.1-0.1,0.2-0.3,0.2-0.5c0-0.2,0.1-0.5,0.1-0.8V12.9H189.6z M190,9.4c0,0.3-0.1,0.5-0.2,0.8
		c-0.1,0.2-0.3,0.5-0.5,0.6c-0.2,0.2-0.4,0.3-0.7,0.4c-0.3,0.1-0.5,0.2-0.8,0.2c-0.3,0-0.5-0.1-0.8-0.2s-0.5-0.2-0.6-0.4
		c-0.2-0.2-0.3-0.4-0.4-0.6c-0.1-0.2-0.2-0.5-0.2-0.8c0-0.3,0.1-0.5,0.2-0.8c0.1-0.2,0.3-0.5,0.4-0.6c0.2-0.2,0.4-0.3,0.6-0.4
		s0.5-0.2,0.8-0.2c0.3,0,0.6,0.1,0.8,0.2c0.3,0.1,0.5,0.2,0.7,0.4c0.2,0.2,0.3,0.4,0.5,0.6S190,9.1,190,9.4z"/>
	<path d="M200.6,25.3c-0.3,0-0.5,0-0.7-0.1s-0.3-0.3-0.4-0.6l-0.3-0.8c-0.3,0.3-0.6,0.5-0.9,0.7s-0.6,0.4-0.9,0.5
		c-0.3,0.1-0.7,0.2-1,0.3c-0.4,0.1-0.8,0.1-1.2,0.1c-0.5,0-1-0.1-1.5-0.2s-0.8-0.4-1.2-0.6c-0.3-0.3-0.6-0.6-0.8-1.1
		c-0.2-0.4-0.3-0.9-0.3-1.5c0-0.5,0.1-0.9,0.3-1.4c0.2-0.5,0.6-0.9,1.2-1.2c0.6-0.4,1.3-0.7,2.3-0.9c0.9-0.2,2.1-0.4,3.5-0.4v-0.6
		c0-0.8-0.2-1.3-0.5-1.7c-0.3-0.4-0.8-0.5-1.4-0.5c-0.5,0-0.8,0.1-1.1,0.2c-0.3,0.1-0.6,0.2-0.8,0.3c-0.2,0.1-0.4,0.2-0.6,0.3
		c-0.2,0.1-0.4,0.2-0.7,0.2c-0.2,0-0.4-0.1-0.6-0.2c-0.2-0.1-0.3-0.3-0.4-0.4l-0.6-1.1c0.7-0.7,1.5-1.1,2.4-1.5s1.8-0.5,2.9-0.5
		c0.7,0,1.4,0.1,2,0.4c0.6,0.2,1.1,0.6,1.5,1c0.4,0.4,0.7,0.9,0.9,1.5c0.2,0.6,0.3,1.2,0.3,1.9v7.8H200.6z M196.3,23.2
		c0.5,0,1-0.1,1.4-0.3c0.4-0.2,0.8-0.5,1.2-0.9v-1.9c-0.8,0-1.5,0.1-2,0.2c-0.5,0.1-1,0.2-1.3,0.4c-0.3,0.2-0.5,0.3-0.7,0.5
		s-0.2,0.4-0.2,0.7c0,0.5,0.1,0.8,0.4,1C195.4,23.1,195.8,23.2,196.3,23.2z"/>
	<path d="M204.7,25.3V12.9h2c0.3,0,0.6,0.1,0.7,0.2s0.2,0.3,0.3,0.6l0.2,1.2c0.4-0.7,0.8-1.3,1.4-1.7c0.5-0.4,1.1-0.6,1.8-0.6
		c0.6,0,1,0.1,1.4,0.4l-0.2,2.4c0,0.2-0.1,0.3-0.2,0.3s-0.2,0.1-0.3,0.1c-0.1,0-0.3,0-0.6-0.1c-0.2,0-0.5-0.1-0.7-0.1
		c-0.6,0-1.1,0.2-1.4,0.5c-0.4,0.3-0.7,0.8-0.9,1.4v7.6H204.7z"/>
	<path d="M229.9,12.9v16.4h-3.3v-5.5c-0.5,0.5-1,0.9-1.6,1.2c-0.6,0.3-1.3,0.5-2.1,0.5c-0.7,0-1.3-0.1-1.8-0.4
		c-0.6-0.3-1-0.7-1.4-1.2c-0.4-0.5-0.7-1.2-0.9-2c-0.2-0.8-0.3-1.7-0.3-2.7c0-0.9,0.1-1.8,0.4-2.6s0.6-1.5,1.1-2.1
		c0.5-0.6,1-1,1.7-1.4c0.7-0.3,1.4-0.5,2.2-0.5c0.4,0,0.7,0,1,0.1c0.3,0.1,0.6,0.2,0.9,0.3c0.3,0.1,0.5,0.3,0.7,0.4s0.4,0.4,0.6,0.6
		l0.2-0.6c0.1-0.4,0.4-0.6,0.8-0.6H229.9z M224,22.9c0.6,0,1.1-0.1,1.5-0.3c0.4-0.2,0.8-0.6,1.1-1v-5.4c-0.3-0.4-0.6-0.6-1-0.8
		s-0.8-0.2-1.2-0.2c-0.4,0-0.8,0.1-1.1,0.2s-0.6,0.4-0.8,0.7c-0.2,0.3-0.4,0.7-0.5,1.2c-0.1,0.5-0.2,1.1-0.2,1.8
		c0,0.7,0.1,1.3,0.2,1.8c0.1,0.5,0.3,0.9,0.4,1.2c0.2,0.3,0.4,0.5,0.7,0.6C223.4,22.8,223.7,22.9,224,22.9z"/>
	<path d="M235.9,12.9v7.9c0,0.7,0.2,1.2,0.5,1.6c0.3,0.4,0.8,0.6,1.4,0.6c0.5,0,0.9-0.1,1.3-0.3s0.8-0.5,1.2-0.8v-8.9h3.3v12.4h-2
		c-0.4,0-0.7-0.2-0.8-0.6l-0.2-0.9c-0.5,0.5-1,0.9-1.6,1.2c-0.6,0.3-1.3,0.4-2.1,0.4c-0.7,0-1.3-0.1-1.8-0.3c-0.5-0.2-1-0.6-1.3-1
		c-0.4-0.4-0.6-0.9-0.8-1.5c-0.2-0.6-0.3-1.2-0.3-1.9v-7.9H235.9z"/>
	<path d="M251.6,12.7c0.8,0,1.5,0.1,2.2,0.4s1.2,0.6,1.7,1.1c0.5,0.5,0.9,1.1,1.1,1.8c0.3,0.7,0.4,1.5,0.4,2.4c0,0.2,0,0.5,0,0.6
		c0,0.2-0.1,0.3-0.1,0.4c-0.1,0.1-0.1,0.2-0.2,0.2s-0.2,0.1-0.4,0.1h-7.4c0.1,1.2,0.4,2,1,2.5c0.6,0.5,1.3,0.8,2.2,0.8
		c0.5,0,0.9-0.1,1.2-0.2c0.3-0.1,0.6-0.2,0.9-0.4c0.3-0.1,0.5-0.3,0.7-0.4s0.4-0.2,0.6-0.2c0.3,0,0.5,0.1,0.6,0.3l1,1.2
		c-0.4,0.4-0.7,0.7-1.2,1c-0.4,0.3-0.9,0.5-1.3,0.6c-0.5,0.2-0.9,0.3-1.4,0.3s-0.9,0.1-1.3,0.1c-0.9,0-1.7-0.1-2.4-0.4
		c-0.7-0.3-1.4-0.7-2-1.3s-1-1.2-1.3-2.1c-0.3-0.8-0.5-1.8-0.5-2.9c0-0.8,0.1-1.6,0.4-2.4c0.3-0.7,0.7-1.4,1.2-1.9
		c0.5-0.6,1.2-1,1.9-1.3C249.8,12.9,250.7,12.7,251.6,12.7z M251.7,15.1c-0.8,0-1.4,0.2-1.9,0.7c-0.4,0.5-0.7,1.1-0.9,1.9h5.2
		c0-0.3,0-0.7-0.1-1s-0.2-0.6-0.4-0.8c-0.2-0.2-0.5-0.4-0.8-0.6S252.1,15.1,251.7,15.1z"/>
	<path d="M270.2,12.7c0.8,0,1.5,0.1,2.2,0.4s1.2,0.6,1.7,1.1c0.5,0.5,0.9,1.1,1.1,1.8c0.3,0.7,0.4,1.5,0.4,2.4c0,0.2,0,0.5,0,0.6
		c0,0.2-0.1,0.3-0.1,0.4c-0.1,0.1-0.1,0.2-0.2,0.2s-0.2,0.1-0.4,0.1h-7.4c0.1,1.2,0.4,2,1,2.5c0.6,0.5,1.3,0.8,2.2,0.8
		c0.5,0,0.9-0.1,1.2-0.2c0.3-0.1,0.6-0.2,0.9-0.4c0.3-0.1,0.5-0.3,0.7-0.4s0.4-0.2,0.6-0.2c0.3,0,0.5,0.1,0.6,0.3l1,1.2
		c-0.4,0.4-0.7,0.7-1.2,1c-0.4,0.3-0.9,0.5-1.3,0.6c-0.5,0.2-0.9,0.3-1.4,0.3s-0.9,0.1-1.3,0.1c-0.9,0-1.7-0.1-2.4-0.4
		c-0.7-0.3-1.4-0.7-2-1.3s-1-1.2-1.3-2.1c-0.3-0.8-0.5-1.8-0.5-2.9c0-0.8,0.1-1.6,0.4-2.4c0.3-0.7,0.7-1.4,1.2-1.9
		c0.5-0.6,1.2-1,1.9-1.3C268.4,12.9,269.2,12.7,270.2,12.7z M270.2,15.1c-0.8,0-1.4,0.2-1.9,0.7c-0.4,0.5-0.7,1.1-0.9,1.9h5.2
		c0-0.3,0-0.7-0.1-1s-0.2-0.6-0.4-0.8c-0.2-0.2-0.5-0.4-0.8-0.6S270.7,15.1,270.2,15.1z"/>
	<path d="M281,7.4v17.9h-3.3V7.4H281z"/>
	<path d="M291.5,15.5c-0.1,0.1-0.2,0.2-0.3,0.3s-0.2,0.1-0.4,0.1s-0.3,0-0.5-0.1s-0.4-0.2-0.6-0.3c-0.2-0.1-0.4-0.2-0.7-0.3
		c-0.3-0.1-0.6-0.1-0.9-0.1c-0.5,0-1,0.1-1.2,0.3c-0.3,0.2-0.4,0.5-0.4,0.9c0,0.2,0.1,0.5,0.3,0.6c0.2,0.2,0.4,0.3,0.7,0.4
		c0.3,0.1,0.6,0.2,0.9,0.3c0.4,0.1,0.7,0.2,1.1,0.4s0.7,0.3,1.1,0.4c0.4,0.2,0.7,0.4,0.9,0.6c0.3,0.3,0.5,0.6,0.7,0.9
		s0.3,0.8,0.3,1.3c0,0.6-0.1,1.2-0.3,1.7c-0.2,0.5-0.5,0.9-1,1.3c-0.4,0.4-1,0.7-1.6,0.9s-1.4,0.3-2.2,0.3c-0.4,0-0.8,0-1.3-0.1
		c-0.4-0.1-0.8-0.2-1.2-0.3c-0.4-0.1-0.7-0.3-1.1-0.5s-0.6-0.4-0.9-0.6l0.8-1.2c0.1-0.1,0.2-0.3,0.3-0.3s0.3-0.1,0.5-0.1
		c0.2,0,0.4,0,0.6,0.1s0.4,0.2,0.6,0.3c0.2,0.1,0.5,0.2,0.7,0.3s0.6,0.1,1.1,0.1c0.3,0,0.6,0,0.8-0.1c0.2-0.1,0.4-0.2,0.6-0.3
		c0.1-0.1,0.2-0.3,0.3-0.4c0.1-0.2,0.1-0.3,0.1-0.5c0-0.3-0.1-0.5-0.3-0.7c-0.2-0.2-0.4-0.3-0.7-0.5c-0.3-0.1-0.6-0.2-1-0.3
		c-0.4-0.1-0.7-0.2-1.1-0.3s-0.7-0.3-1.1-0.5s-0.7-0.4-0.9-0.7c-0.3-0.3-0.5-0.6-0.7-1c-0.2-0.4-0.3-0.9-0.3-1.4
		c0-0.5,0.1-1,0.3-1.5s0.5-0.9,0.9-1.2c0.4-0.4,0.9-0.6,1.5-0.8c0.6-0.2,1.3-0.3,2.1-0.3c0.9,0,1.7,0.1,2.4,0.4
		c0.7,0.3,1.3,0.7,1.8,1.1L291.5,15.5z"/>
	<path d="M305.5,12.7c0.8,0,1.5,0.1,2.2,0.4s1.2,0.6,1.7,1.1c0.5,0.5,0.9,1.1,1.1,1.8c0.3,0.7,0.4,1.5,0.4,2.4c0,0.2,0,0.5,0,0.6
		c0,0.2-0.1,0.3-0.1,0.4c-0.1,0.1-0.1,0.2-0.2,0.2s-0.2,0.1-0.4,0.1h-7.4c0.1,1.2,0.4,2,1,2.5c0.6,0.5,1.3,0.8,2.2,0.8
		c0.5,0,0.9-0.1,1.2-0.2c0.3-0.1,0.6-0.2,0.9-0.4c0.3-0.1,0.5-0.3,0.7-0.4s0.4-0.2,0.6-0.2c0.3,0,0.5,0.1,0.6,0.3l1,1.2
		c-0.4,0.4-0.7,0.7-1.2,1c-0.4,0.3-0.9,0.5-1.3,0.6c-0.5,0.2-0.9,0.3-1.4,0.3s-0.9,0.1-1.3,0.1c-0.9,0-1.7-0.1-2.4-0.4
		c-0.7-0.3-1.4-0.7-2-1.3s-1-1.2-1.3-2.1c-0.3-0.8-0.5-1.8-0.5-2.9c0-0.8,0.1-1.6,0.4-2.4c0.3-0.7,0.7-1.4,1.2-1.9
		c0.5-0.6,1.2-1,1.9-1.3C303.7,12.9,304.5,12.7,305.5,12.7z M305.5,15.1c-0.8,0-1.4,0.2-1.9,0.7c-0.4,0.5-0.7,1.1-0.9,1.9h5.2
		c0-0.3,0-0.7-0.1-1s-0.2-0.6-0.4-0.8c-0.2-0.2-0.5-0.4-0.8-0.6S305.9,15.1,305.5,15.1z"/>
	<path d="M316.2,12.9v7.9c0,0.7,0.2,1.2,0.5,1.6c0.3,0.4,0.8,0.6,1.4,0.6c0.5,0,0.9-0.1,1.3-0.3s0.8-0.5,1.2-0.8v-8.9h3.3v12.4h-2
		c-0.4,0-0.7-0.2-0.8-0.6l-0.2-0.9c-0.5,0.5-1,0.9-1.6,1.2c-0.6,0.3-1.3,0.4-2.1,0.4c-0.7,0-1.3-0.1-1.8-0.3c-0.5-0.2-1-0.6-1.3-1
		c-0.4-0.4-0.6-0.9-0.8-1.5c-0.2-0.6-0.3-1.2-0.3-1.9v-7.9H316.2z"/>
	<path d="M326.6,25.3V12.9h2c0.3,0,0.6,0.1,0.7,0.2s0.2,0.3,0.3,0.6l0.2,1.2c0.4-0.7,0.8-1.3,1.4-1.7c0.5-0.4,1.1-0.6,1.8-0.6
		c0.6,0,1,0.1,1.4,0.4l-0.2,2.4c0,0.2-0.1,0.3-0.2,0.3s-0.2,0.1-0.3,0.1c-0.1,0-0.3,0-0.6-0.1c-0.2,0-0.5-0.1-0.7-0.1
		c-0.6,0-1.1,0.2-1.4,0.5c-0.4,0.3-0.7,0.8-0.9,1.4v7.6H326.6z"/>
	<path d="M340.9,12.7c0.9,0,1.8,0.1,2.5,0.4c0.8,0.3,1.4,0.7,2,1.3s1,1.2,1.3,2s0.4,1.7,0.4,2.7s-0.1,1.9-0.4,2.7s-0.7,1.5-1.3,2
		c-0.5,0.6-1.2,1-2,1.3c-0.8,0.3-1.6,0.4-2.5,0.4c-0.9,0-1.8-0.1-2.5-0.4c-0.8-0.3-1.4-0.7-2-1.3c-0.5-0.6-1-1.2-1.3-2
		s-0.5-1.7-0.5-2.7s0.2-1.9,0.5-2.7s0.7-1.5,1.3-2s1.2-1,2-1.3C339.1,12.9,340,12.7,340.9,12.7z M340.9,23c0.9,0,1.6-0.3,2.1-1
		c0.5-0.7,0.7-1.6,0.7-2.9c0-1.3-0.2-2.2-0.7-2.9s-1.2-1-2.1-1c-1,0-1.7,0.3-2.1,1c-0.5,0.7-0.7,1.6-0.7,2.9c0,1.3,0.2,2.3,0.7,2.9
		C339.2,22.7,339.9,23,340.9,23z"/>
	<path d="M349.2,29.3V12.9h2c0.4,0,0.7,0.2,0.8,0.6l0.3,1c0.2-0.3,0.5-0.5,0.8-0.8c0.3-0.2,0.6-0.4,0.9-0.6c0.3-0.2,0.7-0.3,1-0.4
		c0.4-0.1,0.8-0.1,1.2-0.1c0.7,0,1.3,0.1,1.8,0.4c0.6,0.3,1,0.7,1.4,1.2s0.7,1.2,0.9,2c0.2,0.8,0.3,1.7,0.3,2.7
		c0,0.9-0.1,1.8-0.4,2.6c-0.3,0.8-0.6,1.5-1.1,2c-0.5,0.6-1,1-1.7,1.3c-0.7,0.3-1.4,0.5-2.2,0.5c-0.7,0-1.2-0.1-1.7-0.3
		c-0.5-0.2-0.9-0.5-1.3-0.8v4.9H349.2z M355.1,15.3c-0.6,0-1.1,0.1-1.5,0.3c-0.4,0.2-0.8,0.6-1.1,1V22c0.3,0.4,0.7,0.6,1,0.8
		c0.4,0.1,0.8,0.2,1.2,0.2c0.4,0,0.8-0.1,1.1-0.2s0.6-0.4,0.8-0.7c0.2-0.3,0.4-0.7,0.5-1.2s0.2-1.1,0.2-1.8c0-0.7-0.1-1.3-0.2-1.8
		s-0.3-0.9-0.5-1.2s-0.4-0.5-0.7-0.6S355.4,15.3,355.1,15.3z"/>
	<path d="M368.3,12.7c0.8,0,1.5,0.1,2.2,0.4s1.2,0.6,1.7,1.1c0.5,0.5,0.9,1.1,1.1,1.8c0.3,0.7,0.4,1.5,0.4,2.4c0,0.2,0,0.5,0,0.6
		c0,0.2-0.1,0.3-0.1,0.4c-0.1,0.1-0.1,0.2-0.2,0.2s-0.2,0.1-0.4,0.1h-7.4c0.1,1.2,0.4,2,1,2.5c0.6,0.5,1.3,0.8,2.2,0.8
		c0.5,0,0.9-0.1,1.2-0.2c0.3-0.1,0.6-0.2,0.9-0.4c0.3-0.1,0.5-0.3,0.7-0.4s0.4-0.2,0.6-0.2c0.3,0,0.5,0.1,0.6,0.3l1,1.2
		c-0.4,0.4-0.7,0.7-1.2,1c-0.4,0.3-0.9,0.5-1.3,0.6c-0.5,0.2-0.9,0.3-1.4,0.3s-0.9,0.1-1.3,0.1c-0.9,0-1.7-0.1-2.4-0.4
		c-0.7-0.3-1.4-0.7-2-1.3s-1-1.2-1.3-2.1c-0.3-0.8-0.5-1.8-0.5-2.9c0-0.8,0.1-1.6,0.4-2.4c0.3-0.7,0.7-1.4,1.2-1.9
		c0.5-0.6,1.2-1,1.9-1.3C366.5,12.9,367.3,12.7,368.3,12.7z M368.3,15.1c-0.8,0-1.4,0.2-1.9,0.7c-0.4,0.5-0.7,1.1-0.9,1.9h5.2
		c0-0.3,0-0.7-0.1-1s-0.2-0.6-0.4-0.8c-0.2-0.2-0.5-0.4-0.8-0.6S368.7,15.1,368.3,15.1z"/>
	<path d="M378.9,12.9v7.9c0,0.7,0.2,1.2,0.5,1.6c0.3,0.4,0.8,0.6,1.4,0.6c0.5,0,0.9-0.1,1.3-0.3s0.8-0.5,1.2-0.8v-8.9h3.3v12.4h-2
		c-0.4,0-0.7-0.2-0.8-0.6l-0.2-0.9c-0.5,0.5-1,0.9-1.6,1.2c-0.6,0.3-1.3,0.4-2.1,0.4c-0.7,0-1.3-0.1-1.8-0.3c-0.5-0.2-1-0.6-1.3-1
		c-0.4-0.4-0.6-0.9-0.8-1.5c-0.2-0.6-0.3-1.2-0.3-1.9v-7.9H378.9z"/>
	<path d="M397,15.5c-0.1,0.1-0.2,0.2-0.3,0.3s-0.2,0.1-0.4,0.1s-0.3,0-0.5-0.1s-0.4-0.2-0.6-0.3c-0.2-0.1-0.4-0.2-0.7-0.3
		c-0.3-0.1-0.6-0.1-0.9-0.1c-0.5,0-1,0.1-1.2,0.3c-0.3,0.2-0.4,0.5-0.4,0.9c0,0.2,0.1,0.5,0.3,0.6c0.2,0.2,0.4,0.3,0.7,0.4
		c0.3,0.1,0.6,0.2,0.9,0.3c0.4,0.1,0.7,0.2,1.1,0.4s0.7,0.3,1.1,0.4c0.4,0.2,0.7,0.4,0.9,0.6c0.3,0.3,0.5,0.6,0.7,0.9
		s0.3,0.8,0.3,1.3c0,0.6-0.1,1.2-0.3,1.7c-0.2,0.5-0.5,0.9-1,1.3c-0.4,0.4-1,0.7-1.6,0.9s-1.4,0.3-2.2,0.3c-0.4,0-0.8,0-1.3-0.1
		c-0.4-0.1-0.8-0.2-1.2-0.3c-0.4-0.1-0.7-0.3-1.1-0.5s-0.6-0.4-0.9-0.6l0.8-1.2c0.1-0.1,0.2-0.3,0.3-0.3s0.3-0.1,0.5-0.1
		c0.2,0,0.4,0,0.6,0.1s0.4,0.2,0.6,0.3c0.2,0.1,0.5,0.2,0.7,0.3s0.6,0.1,1.1,0.1c0.3,0,0.6,0,0.8-0.1c0.2-0.1,0.4-0.2,0.6-0.3
		c0.1-0.1,0.2-0.3,0.3-0.4c0.1-0.2,0.1-0.3,0.1-0.5c0-0.3-0.1-0.5-0.3-0.7c-0.2-0.2-0.4-0.3-0.7-0.5c-0.3-0.1-0.6-0.2-1-0.3
		c-0.4-0.1-0.7-0.2-1.1-0.3s-0.7-0.3-1.1-0.5s-0.7-0.4-0.9-0.7c-0.3-0.3-0.5-0.6-0.7-1c-0.2-0.4-0.3-0.9-0.3-1.4
		c0-0.5,0.1-1,0.3-1.5s0.5-0.9,0.9-1.2c0.4-0.4,0.9-0.6,1.5-0.8c0.6-0.2,1.3-0.3,2.1-0.3c0.9,0,1.7,0.1,2.4,0.4
		c0.7,0.3,1.3,0.7,1.8,1.1L397,15.5z"/>
	<path d="M409,7.4v17.9h-3.3V7.4H409z"/>
	<path d="M415.1,7.4v17.9h-3.3V7.4H415.1z"/>
	<path d="M423.2,12.7c0.8,0,1.5,0.1,2.2,0.4s1.2,0.6,1.7,1.1c0.5,0.5,0.9,1.1,1.1,1.8c0.3,0.7,0.4,1.5,0.4,2.4c0,0.2,0,0.5,0,0.6
		c0,0.2-0.1,0.3-0.1,0.4c-0.1,0.1-0.1,0.2-0.2,0.2s-0.2,0.1-0.4,0.1h-7.4c0.1,1.2,0.4,2,1,2.5c0.6,0.5,1.3,0.8,2.2,0.8
		c0.5,0,0.9-0.1,1.2-0.2c0.3-0.1,0.6-0.2,0.9-0.4c0.3-0.1,0.5-0.3,0.7-0.4s0.4-0.2,0.6-0.2c0.3,0,0.5,0.1,0.6,0.3l1,1.2
		c-0.4,0.4-0.7,0.7-1.2,1c-0.4,0.3-0.9,0.5-1.3,0.6c-0.5,0.2-0.9,0.3-1.4,0.3s-0.9,0.1-1.3,0.1c-0.9,0-1.7-0.1-2.4-0.4
		c-0.7-0.3-1.4-0.7-2-1.3s-1-1.2-1.3-2.1c-0.3-0.8-0.5-1.8-0.5-2.9c0-0.8,0.1-1.6,0.4-2.4c0.3-0.7,0.7-1.4,1.2-1.9
		c0.5-0.6,1.2-1,1.9-1.3C421.4,12.9,422.3,12.7,423.2,12.7z M423.3,15.1c-0.8,0-1.4,0.2-1.9,0.7c-0.4,0.5-0.7,1.1-0.9,1.9h5.2
		c0-0.3,0-0.7-0.1-1s-0.2-0.6-0.4-0.8c-0.2-0.2-0.5-0.4-0.8-0.6S423.7,15.1,423.3,15.1z"/>
	<path d="M430.7,25.3V12.9h2c0.4,0,0.7,0.2,0.8,0.6l0.2,0.9c0.2-0.2,0.5-0.5,0.8-0.7c0.3-0.2,0.6-0.4,0.9-0.5c0.3-0.1,0.6-0.3,1-0.3
		s0.7-0.1,1.1-0.1c0.7,0,1.3,0.1,1.8,0.3c0.5,0.2,1,0.6,1.3,1c0.4,0.4,0.6,0.9,0.8,1.5c0.2,0.6,0.3,1.2,0.3,1.9v7.9h-3.3v-7.9
		c0-0.7-0.2-1.2-0.5-1.6c-0.3-0.4-0.8-0.6-1.4-0.6c-0.5,0-0.9,0.1-1.3,0.3s-0.8,0.5-1.2,0.8v8.9H430.7z"/>
	<path d="M453.3,15.7c-0.1,0.1-0.2,0.2-0.3,0.3c-0.1,0.1-0.2,0.1-0.4,0.1c-0.2,0-0.3,0-0.5-0.1c-0.1-0.1-0.3-0.2-0.5-0.3
		c-0.2-0.1-0.4-0.2-0.7-0.3c-0.3-0.1-0.6-0.1-1-0.1c-0.5,0-0.9,0.1-1.3,0.3c-0.4,0.2-0.7,0.4-0.9,0.8c-0.2,0.3-0.4,0.7-0.5,1.2
		c-0.1,0.5-0.2,1-0.2,1.6c0,1.3,0.3,2.2,0.8,2.9c0.5,0.7,1.2,1,2.1,1c0.3,0,0.6,0,0.8-0.1c0.2-0.1,0.4-0.1,0.6-0.2s0.3-0.2,0.4-0.3
		s0.2-0.2,0.3-0.3c0.1-0.1,0.2-0.1,0.3-0.2c0.1-0.1,0.2-0.1,0.4-0.1c0.3,0,0.5,0.1,0.6,0.3l0.9,1.2c-0.4,0.4-0.7,0.7-1.1,1
		c-0.4,0.3-0.8,0.5-1.2,0.6c-0.4,0.2-0.9,0.3-1.3,0.3c-0.4,0.1-0.9,0.1-1.3,0.1c-0.8,0-1.5-0.1-2.2-0.4c-0.7-0.3-1.3-0.7-1.8-1.2
		s-0.9-1.2-1.2-2s-0.5-1.7-0.5-2.7c0-0.9,0.1-1.7,0.4-2.5c0.3-0.8,0.7-1.4,1.2-2c0.5-0.6,1.1-1,1.9-1.3c0.8-0.3,1.6-0.5,2.6-0.5
		c0.9,0,1.8,0.2,2.5,0.5s1.4,0.7,1.9,1.3L453.3,15.7z"/>
	<path d="M461.1,12.7c0.8,0,1.5,0.1,2.2,0.4s1.2,0.6,1.7,1.1c0.5,0.5,0.9,1.1,1.1,1.8c0.3,0.7,0.4,1.5,0.4,2.4c0,0.2,0,0.5,0,0.6
		c0,0.2-0.1,0.3-0.1,0.4c-0.1,0.1-0.1,0.2-0.2,0.2s-0.2,0.1-0.4,0.1h-7.4c0.1,1.2,0.4,2,1,2.5c0.6,0.5,1.3,0.8,2.2,0.8
		c0.5,0,0.9-0.1,1.2-0.2c0.3-0.1,0.6-0.2,0.9-0.4c0.3-0.1,0.5-0.3,0.7-0.4s0.4-0.2,0.6-0.2c0.3,0,0.5,0.1,0.6,0.3l1,1.2
		c-0.4,0.4-0.7,0.7-1.2,1c-0.4,0.3-0.9,0.5-1.3,0.6c-0.5,0.2-0.9,0.3-1.4,0.3s-0.9,0.1-1.3,0.1c-0.9,0-1.7-0.1-2.4-0.4
		c-0.7-0.3-1.4-0.7-2-1.3s-1-1.2-1.3-2.1c-0.3-0.8-0.5-1.8-0.5-2.9c0-0.8,0.1-1.6,0.4-2.4c0.3-0.7,0.7-1.4,1.2-1.9
		c0.5-0.6,1.2-1,1.9-1.3C459.3,12.9,460.2,12.7,461.1,12.7z M461.2,15.1c-0.8,0-1.4,0.2-1.9,0.7c-0.4,0.5-0.7,1.1-0.9,1.9h5.2
		c0-0.3,0-0.7-0.1-1s-0.2-0.6-0.4-0.8c-0.2-0.2-0.5-0.4-0.8-0.6S461.6,15.1,461.2,15.1z"/>
	<path d="M468.6,25.3V12.9h2c0.4,0,0.7,0.2,0.8,0.6l0.2,0.8c0.2-0.2,0.4-0.4,0.7-0.6c0.2-0.2,0.5-0.4,0.7-0.5
		c0.3-0.1,0.5-0.2,0.9-0.3c0.3-0.1,0.6-0.1,1-0.1c0.8,0,1.4,0.2,1.9,0.6c0.5,0.4,0.9,0.9,1.1,1.6c0.2-0.4,0.4-0.7,0.7-1
		c0.3-0.3,0.6-0.5,1-0.7c0.3-0.2,0.7-0.3,1.1-0.4s0.8-0.1,1.2-0.1c0.7,0,1.3,0.1,1.8,0.3c0.5,0.2,1,0.5,1.3,0.9s0.6,0.9,0.8,1.5
		s0.3,1.2,0.3,2v7.9h-3.3v-7.9c0-1.4-0.6-2.2-1.9-2.2c-0.3,0-0.5,0-0.8,0.1c-0.2,0.1-0.4,0.2-0.6,0.4c-0.2,0.2-0.3,0.4-0.4,0.7
		s-0.1,0.6-0.1,0.9v7.9h-3.3v-7.9c0-0.8-0.2-1.3-0.5-1.7c-0.3-0.3-0.8-0.5-1.4-0.5c-0.4,0-0.7,0.1-1.1,0.3c-0.3,0.2-0.7,0.4-1,0.8v9
		H468.6z"/>
</g>
</svg>
